{
	"asset":{
		"generator":"Khronos glTF Blender I/O v3.6.28",
		"version":"2.0"
	},
	"scene":0,
	"scenes":[
		{
			"name":"Scene",
			"nodes":[
				6
			]
		}
	],
	"nodes":[
		{
			"mesh":0,
			"name":"Object_4"
		},
		{
			"mesh":1,
			"name":"Object_5"
		},
		{
			"mesh":2,
			"name":"Object_6"
		},
		{
			"children":[
				0,
				1,
				2
			],
			"name":"BezierCurve_0",
			"rotation":[
				0.70710688829422,
				0,
				0,
				0.7071066498756409
			]
		},
		{
			"children":[
				3
			],
			"name":"GLTF_SceneRootNode",
			"rotation":[
				0.70710688829422,
				0,
				0,
				0.7071066498756409
			]
		},
		{
			"children":[
				4
			],
			"name":"root"
		},
		{
			"children":[
				5
			],
			"name":"Sketchfab_model",
			"rotation":[
				-0.70710688829422,
				0,
				0,
				0.7071066498756409
			],
			"scale":[
				2,
				1.9999998807907104,
				1.9999998807907104
			],
			"translation":[
				0,
				0.006211459636688232,
				0
			]
		}
	],
	"materials":[
		{
			"doubleSided":true,
			"name":"Metal.002",
			"pbrMetallicRoughness":{
				"baseColorFactor":[
					0.8970929980278015,
					0.8970929980278015,
					0.8970929980278015,
					1
				],
				"roughnessFactor":0.15000000596046448
			}
		},
		{
			"doubleSided":true,
			"name":"Black.002",
			"pbrMetallicRoughness":{
				"baseColorFactor":[
					0.021979300305247307,
					0.021979300305247307,
					0.021979300305247307,
					1
				],
				"roughnessFactor":0.20000000298023224
			}
		},
		{
			"doubleSided":true,
			"emissiveFactor":[
				0.3659846782684326,
				0.012395553290843964,
				0.37678641080856323
			],
			"name":"Material.001",
			"pbrMetallicRoughness":{}
		}
	],
	"meshes":[
		{
			"name":"Object_0.002",
			"primitives":[
				{
					"attributes":{
						"POSITION":0,
						"NORMAL":1
					},
					"indices":2,
					"material":0
				}
			]
		},
		{
			"name":"Object_1.002",
			"primitives":[
				{
					"attributes":{
						"POSITION":3,
						"NORMAL":4
					},
					"indices":5,
					"material":1
				}
			]
		},
		{
			"name":"Object_2.002",
			"primitives":[
				{
					"attributes":{
						"POSITION":6,
						"NORMAL":7
					},
					"indices":8,
					"material":2
				}
			]
		}
	],
	"accessors":[
		{
			"bufferView":0,
			"componentType":5126,
			"count":2472,
			"max":[
				0.9819073677062988,
				0.9819073677062988,
				0.22557777166366577
			],
			"min":[
				-0.9819073677062988,
				-0.9819073677062988,
				-0.4652276039123535
			],
			"type":"VEC3"
		},
		{
			"bufferView":1,
			"componentType":5126,
			"count":2472,
			"type":"VEC3"
		},
		{
			"bufferView":2,
			"componentType":5123,
			"count":11904,
			"type":"SCALAR"
		},
		{
			"bufferView":3,
			"componentType":5126,
			"count":1017,
			"max":[
				0.9884787797927856,
				0.9884787201881409,
				0.1606740653514862
			],
			"min":[
				-0.9884787797927856,
				-0.9884788393974304,
				-0.4898647964000702
			],
			"type":"VEC3"
		},
		{
			"bufferView":4,
			"componentType":5126,
			"count":1017,
			"type":"VEC3"
		},
		{
			"bufferView":5,
			"componentType":5123,
			"count":4416,
			"type":"SCALAR"
		},
		{
			"bufferView":6,
			"componentType":5126,
			"count":385,
			"max":[
				0.35747742652893066,
				0.3574775159358978,
				0.2808804214000702
			],
			"min":[
				-0.35747742652893066,
				-0.3574773371219635,
				0.22554485499858856
			],
			"type":"VEC3"
		},
		{
			"bufferView":7,
			"componentType":5126,
			"count":385,
			"type":"VEC3"
		},
		{
			"bufferView":8,
			"componentType":5123,
			"count":2112,
			"type":"SCALAR"
		}
	],
	"bufferViews":[
		{
			"buffer":0,
			"byteLength":29664,
			"byteOffset":0,
			"target":34962
		},
		{
			"buffer":0,
			"byteLength":29664,
			"byteOffset":29664,
			"target":34962
		},
		{
			"buffer":0,
			"byteLength":23808,
			"byteOffset":59328,
			"target":34963
		},
		{
			"buffer":0,
			"byteLength":12204,
			"byteOffset":83136,
			"target":34962
		},
		{
			"buffer":0,
			"byteLength":12204,
			"byteOffset":95340,
			"target":34962
		},
		{
			"buffer":0,
			"byteLength":8832,
			"byteOffset":107544,
			"target":34963
		},
		{
			"buffer":0,
			"byteLength":4620,
			"byteOffset":116376,
			"target":34962
		},
		{
			"buffer":0,
			"byteLength":4620,
			"byteOffset":120996,
			"target":34962
		},
		{
			"buffer":0,
			"byteLength":4224,
			"byteOffset":125616,
			"target":34963
		}
	],
	"buffers":[
		{
			"byteLength":129840,
			"uri":"untitled.bin"
		}
	]
}
